<svg xmlns="http://www.w3.org/2000/svg" width="300" height="300" version="1.0" viewBox="0 0 225 225" fill="currentcolor"><path d="m163.9 19.9-2.4 1.9-.3 39.1c-.2 21.5-.5 39.1-.7 39.1-.2 0-11.5-6.4-25.2-14.3C91 60.1 90.9 60.1 87 64c-1.8 1.8-2 3.3-2 19 0 9.3-.2 17-.5 17-.2 0-15.4-8.6-33.7-19-18.3-10.5-34.1-19-35.3-19-1.1 0-3.1.7-4.3 1.6L9 65.1v69.3c0 63.3.1 69.5 1.7 70.7 2.4 2.1 201.2 2.1 203.6 0 1.6-1.2 1.7-8.9 1.7-92.7V21.1l-2.2-1.5c-1.9-1.3-6-1.6-24.9-1.6-20.8 0-22.9.2-25 1.9zm39.1 92.6V193H22v-56.1c0-47.9.2-56 1.4-55.6.8.3 13 7.3 27.3 15.5 36.4 21 38.7 22.2 41.5 22.2 4.9 0 5.8-2.5 5.9-16.6.1-7.1.4-14.8.8-17.2l.6-4.2 33.2 19c18.2 10.4 34.2 19 35.5 19 3.7 0 5-1.5 5.9-6.6.4-2.7.8-21.9.8-42.7L175 32h28v80.5z"/><path d="M34 138c-1.8 1.8-2 3.3-2 16 0 19.1-1.5 18 22.8 18 24.1 0 22.7 1.1 22.7-18s1.4-18-22.7-18c-17.5 0-18.9.1-20.8 2zm30 16v5H46v-10h18v5zM92 138c-1.8 1.8-2 3.3-2 16.3 0 12.7.2 14.6 1.8 16 1.6 1.5 4.6 1.7 20.9 1.7 17.1 0 19.2-.2 20.6-1.8 1.4-1.6 1.7-4.3 1.7-16.4 0-12.8-.2-14.7-1.8-16.1-1.6-1.5-4.6-1.7-20.5-1.7-17.4 0-18.8.1-20.7 2zm29.5 16v4.5h-18l-.3-3.3c-.6-6-.2-6.3 9.5-6l8.8.3v4.5zM149.7 137.8c-1.4 1.6-1.7 4.3-1.7 16.4 0 12.8.2 14.7 1.8 16.1 1.6 1.5 4.6 1.7 21 1.7 23.7 0 22.2 1.3 22.2-18s1.6-18-22.4-18c-17.4 0-19.5.2-20.9 1.8zm29.8 16.2v4.5h-18l-.3-4.8-.3-4.8 9.3.3 9.3.3v4.5z"/></svg>